<?xml version="1.0" encoding="utf-8"?>
<!-- Generator: Adobe Illustrator 16.0.0, SVG Export Plug-In . SVG Version: 6.00 Build 0)  -->
<!DOCTYPE svg PUBLIC "-//W3C//DTD SVG 1.1//EN" "http://www.w3.org/Graphics/SVG/1.1/DTD/svg11.dtd">
<svg version="1.1" id="Layer_1" xmlns="http://www.w3.org/2000/svg" xmlns:xlink="http://www.w3.org/1999/xlink" x="0px" y="0px"
	 width="16px" height="16px" viewBox="0 0 16 16" enable-background="new 0 0 16 16" xml:space="preserve">
<path fill="#FFFFFF" d="M16,8c0-4.418-3.582-8-8-8C3.582,0,0,3.582,0,8c0,4.418,3.582,8,8,8C12.418,16,16,12.418,16,8z M8.469,4.219
	c0.294-0.294,0.769-0.294,1.06,0c0.29,0.294,0.294,0.769,0,1.06L6.81,7.997l2.719,2.719c0.294,0.294,0.294,0.769,0,1.06
	c-0.294,0.29-0.769,0.293-1.06,0l-3.25-3.244c-0.294-0.294-0.294-0.769,0-1.06L8.469,4.219z"/>
</svg>
