<?xml version="1.0" encoding="utf-8"?>
<!-- Generator: Adobe Illustrator 16.0.0, SVG Export Plug-In . SVG Version: 6.00 Build 0)  -->
<!DOCTYPE svg PUBLIC "-//W3C//DTD SVG 1.1//EN" "http://www.w3.org/Graphics/SVG/1.1/DTD/svg11.dtd">
<svg version="1.1" id="Layer_1" xmlns="http://www.w3.org/2000/svg" xmlns:xlink="http://www.w3.org/1999/xlink" x="0px" y="0px"
	 width="16px" height="16px" viewBox="0 0 16 16" enable-background="new 0 0 16 16" xml:space="preserve">
<path fill="#AAAAAA" d="M5.497,14c-1.094-0.003-2.047-0.706-2.375-1.706C2.112,11.15,1.5,9.646,1.5,8c0-3.591,2.909-6.5,6.5-6.5
	s6.5,2.909,6.5,6.5s-2.909,6.5-6.5,6.5C7.112,14.5,6.266,14.322,5.497,14z M0,8c0,4.418,3.582,8,8,8c4.418,0,8-3.582,8-8
	c0-4.418-3.582-8-8-8C3.582,0,0,3.582,0,8z M4,11.531C4,12.344,4.672,13,5.5,13S7,12.344,7,11.531c0-0.625-0.888-1.888-1.3-2.428
	c-0.1-0.138-0.3-0.138-0.4,0C4.894,9.644,4,10.906,4,11.531z M8,9.5c-0.416,0-0.75,0.334-0.75,0.75S7.584,11,8,11
	c0.959,0,1.834,0.359,2.5,0.956c0.31,0.275,0.781,0.25,1.06-0.06c0.278-0.309,0.25-0.781-0.06-1.059C10.572,10.006,9.344,9.5,8,9.5z
	 M9.487,6.5c0,0.552,0.448,1,1,1s1-0.448,1-1s-0.448-1-1-1S9.487,5.948,9.487,6.5z M5.487,7.5c0.552,0,1-0.448,1-1s-0.448-1-1-1
	s-1,0.448-1,1S4.935,7.5,5.487,7.5z"/>
</svg>
